<?xml version="1.0" standalone="no"?>
<!DOCTYPE svg PUBLIC "-//W3C//DTD SVG 20010904//EN"
 "http://www.w3.org/TR/2001/REC-SVG-20010904/DTD/svg10.dtd">
<svg version="1.0" xmlns="http://www.w3.org/2000/svg"
 width="840.000000pt" height="840.000000pt" viewBox="0 0 840.000000 840.000000"
 preserveAspectRatio="xMidYMid meet">
<metadata>
Created by potrace 1.11, written by Peter Selinger 2001-2013
</metadata>
<g transform="translate(0.000000,840.000000) scale(0.100000,-0.100000)"
fill="#000000" stroke="none">
<path d="M3050 7319 l0 -1047 -22 -3 c-13 -2 -215 -4 -450 -3 l-428 1 0 -448
c0 -349 -3 -448 -12 -451 -7 -2 -480 -3 -1050 -3 l-1038 1 0 -1148 c0 -1086 1
-1148 18 -1148 9 -1 482 -1 1049 -1 l1033 0 2 -450 3 -450 448 -1 447 0 0
-1049 0 -1049 1150 0 1150 0 2 1048 3 1047 420 2 c231 1 432 2 448 2 l27 1 0
449 0 449 998 1 c548 0 1021 0 1050 1 l52 0 0 1148 0 1149 -1037 -1 c-571 -1
-1044 0 -1050 2 -10 3 -13 102 -13 451 l0 447 -437 0 c-241 -1 -444 0 -450 2
-10 3 -13 222 -13 1051 l0 1047 -1150 0 -1150 0 0 -1047z m195 597 l0 -346
950 0 951 0 -1 333 c0 182 1 339 3 348 3 14 38 18 95 10 4 -1 7 -472 7 -1048
l0 -1048 450 1 450 0 0 -447 c0 -349 3 -448 13 -451 6 -2 479 -3 1050 -3
l1037 1 0 -1048 0 -1048 -112 0 c-62 0 -535 -1 -1050 -1 l-938 0 0 -449 0
-450 -450 0 -450 0 0 -1051 0 -1050 -47 3 -48 3 0 346 0 346 -950 -1 -950 -1
-1 -345 0 -345 -52 -3 -52 -3 0 1050 0 1051 -450 0 -450 0 0 450 0 449 -992 0
c-546 0 -1019 1 -1051 1 l-57 0 2 1048 3 1047 1040 1 c572 1 1043 2 1047 3 4
1 9 202 10 449 l3 447 440 2 c242 0 443 2 448 2 4 1 7 471 7 1045 0 826 3
1045 13 1049 6 2 28 3 47 2 l35 -2 0 -347z m1790 294 l0 -55 -830 -1 c-456 0
-835 2 -841 4 -7 2 -11 23 -9 55 1 29 3 52 4 52 0 0 378 0 839 0 l837 0 0 -55z
m-9 -159 c6 0 11 -29 11 -69 l1 -69 -827 0 c-454 -1 -834 1 -843 3 -13 4 -16
17 -15 67 1 34 4 64 8 67 6 4 1630 5 1665 1z m-20 -240 l31 -1 0 -65 c0 -53
-3 -65 -16 -66 -20 -1 -1654 -1 -1662 0 -3 1 -6 29 -5 64 l1 62 40 5 c30 4
1398 4 1611 1z m35 -7059 c12 -3 7 -120 -4 -125 -7 -2 -385 -3 -842 -3 l-830
1 -2 66 -1 66 836 -2 c460 -1 840 -2 843 -3z m-9 -231 c14 -1 16 -12 15 -68
l-2 -68 -840 0 -840 0 -1 65 c-1 36 0 67 1 70 3 4 1601 5 1667 1z m15 -297 l0
-54 -842 0 -842 0 2 53 c1 28 3 53 4 54 0 1 378 2 839 2 l838 0 1 -55z"/>
<path d="M4784 7431 c-97 -26 -160 -79 -200 -166 -104 -228 110 -478 352 -410
217 62 289 327 134 497 -24 26 -88 67 -113 72 -108 22 -115 22 -173 7z m160
-112 c71 -38 107 -97 108 -174 1 -68 -31 -128 -90 -169 -36 -25 -52 -30 -100
-30 -60 0 -122 25 -154 60 -25 29 -55 106 -52 134 11 76 18 95 56 136 61 66
156 84 232 43z"/>
<path d="M3548 7435 c-2 -2 -21 -5 -43 -8 -192 -22 -307 -225 -235 -412 43
-111 178 -192 301 -180 126 13 226 95 262 216 38 127 -28 284 -144 345 -32 17
-134 45 -141 39z m92 -126 c141 -82 136 -286 -9 -355 -42 -21 -115 -26 -151
-10 -168 71 -178 288 -17 370 38 20 139 17 177 -5z"/>
<path d="M4092 7411 c-80 -32 -161 -117 -178 -187 -16 -63 -9 -168 14 -215 51
-106 149 -171 262 -174 36 -2 70 0 75 4 6 3 19 7 29 8 29 5 87 43 123 81 48
50 76 117 77 179 1 29 4 53 8 53 9 0 -33 114 -43 118 -5 2 -9 10 -9 17 0 20
-67 80 -119 107 -60 30 -175 34 -239 9z m175 -93 c15 -6 31 -11 34 -10 12 2
70 -69 83 -101 15 -37 14 -120 -2 -157 -52 -121 -223 -153 -319 -61 -51 48
-74 146 -52 211 14 38 70 97 110 115 41 17 108 19 146 3z"/>
<path d="M5262 5897 c-12 -6 -25 -20 -28 -31 -3 -12 -6 -109 -7 -216 l-2 -195
-290 -1 c-251 -1 -327 -4 -430 -19 -76 -11 -280 -100 -347 -152 -70 -54 -235
-234 -289 -315 -69 -103 -193 -340 -258 -493 -24 -55 -54 -124 -67 -153 -13
-29 -24 -55 -24 -58 0 -15 -143 -291 -184 -353 -88 -137 -205 -225 -326 -247
-25 -4 -160 -8 -300 -9 -140 -1 -265 -4 -276 -8 -27 -9 -42 -66 -34 -124 4
-24 4 -43 1 -43 -5 0 -6 -80 -1 -105 2 -6 2 -13 1 -17 -2 -8 -3 -102 -2 -151
1 -13 10 -33 21 -45 20 -22 23 -22 338 -18 349 4 353 4 552 78 195 73 418 311
565 604 28 54 52 101 55 104 3 3 19 34 34 70 16 36 39 88 51 115 53 118 64
143 90 204 83 199 185 378 262 461 112 122 182 152 368 160 17 1 115 1 219 0
103 0 190 0 192 2 1 2 21 2 44 0 l40 -4 -1 -147 c-1 -262 -1 -259 21 -281 45
-45 51 -41 411 319 284 284 339 344 339 367 0 24 -54 83 -332 361 -183 183
-344 336 -358 341 -15 6 -34 5 -48 -1z"/>
<path d="M2455 5452 c-25 -5 -56 -32 -49 -43 3 -5 2 -9 -3 -9 -9 0 -8 -82 1
-105 3 -8 1 -17 -3 -19 -5 -3 -5 -23 -2 -43 4 -21 4 -49 1 -63 -4 -14 -3 -32
1 -41 4 -8 4 -20 0 -27 -4 -6 -4 -39 -1 -73 7 -72 24 -90 85 -89 191 6 509 -3
548 -15 162 -49 266 -150 374 -365 16 -30 31 -56 36 -58 4 -2 7 -10 7 -17 0
-37 20 -18 45 43 39 91 164 344 207 417 l36 59 -44 56 c-56 72 -165 177 -229
221 -27 19 -52 36 -55 39 -6 6 -115 59 -145 71 -55 21 -156 48 -215 56 -42 6
-566 10 -595 5z"/>
<path d="M975 5105 c-110 -24 -184 -66 -269 -152 -92 -93 -136 -195 -143 -333
-6 -133 -6 -197 1 -209 4 -5 2 -12 -3 -16 -6 -3 -7 -15 -3 -28 5 -12 7 -33 5
-47 -2 -14 -3 -42 -3 -62 0 -34 -3 -38 -25 -38 -36 0 -37 0 -68 -18 -56 -33
-57 -39 -57 -434 0 -389 1 -393 52 -431 26 -20 42 -20 615 -19 323 0 593 1
600 1 6 1 25 12 42 26 32 28 44 73 42 162 -2 69 -2 73 0 123 0 25 0 50 -1 55
-1 6 -2 14 -1 19 1 5 2 100 3 210 0 230 -7 262 -63 288 -29 14 -94 16 -466 16
-237 0 -435 2 -440 5 -5 3 -9 102 -8 219 2 206 2 216 27 269 33 71 87 125 157
156 48 22 67 24 131 21 102 -6 170 -43 231 -127 27 -36 62 -135 52 -144 -3 -3
0 -22 7 -42 15 -45 48 -61 122 -59 43 2 57 7 76 29 21 25 23 35 18 94 -6 90
-28 156 -75 229 -39 59 -136 162 -154 162 -5 0 -22 9 -38 20 -77 56 -243 80
-364 55z"/>
<path d="M7173 5104 c-202 -41 -383 -212 -433 -409 -10 -42 -23 -146 -21 -180
1 -24 2 -153 2 -182 -1 -30 -4 -33 -33 -33 -40 0 -86 -23 -107 -53 -9 -12 -15
-24 -14 -27 1 -3 -2 -9 -6 -15 -4 -5 -6 -188 -5 -405 1 -433 0 -425 62 -466
24 -16 77 -17 661 -17 683 0 689 0 726 51 19 26 20 45 23 437 l3 411 -33 38
c-33 37 -48 44 -103 45 l-30 1 1 140 c1 156 -8 239 -35 305 -28 70 -56 116
-110 180 -26 31 -97 89 -141 115 -114 67 -271 92 -407 64z m259 -263 c94 -45
176 -155 183 -243 1 -22 5 -42 8 -45 3 -3 2 -16 -3 -29 -5 -13 -6 -25 -2 -28
4 -2 6 -47 4 -100 l-3 -96 -324 0 c-299 0 -323 1 -327 18 -2 9 -3 78 -2 152 2
109 6 146 23 191 34 91 115 164 221 202 8 3 51 4 95 3 60 -2 92 -8 127 -25z"/>
<path d="M4130 4064 c-16 -37 -30 -68 -30 -70 0 -11 -126 -263 -163 -325 l-44
-75 36 -50 c52 -72 193 -209 254 -248 71 -45 197 -104 242 -113 38 -8 50 -11
50 -13 0 -1 9 -3 20 -4 11 -2 45 -6 75 -11 30 -4 69 -9 85 -11 17 -2 152 -4
302 -4 l272 0 0 -158 c0 -241 0 -247 14 -265 6 -10 27 -19 44 -21 31 -4 49 12
373 335 322 321 341 341 336 370 -2 17 -6 33 -8 35 -2 2 -151 152 -331 333
-182 181 -339 331 -350 333 -70 12 -77 -9 -79 -247 l-3 -200 -270 1 c-148 0
-290 3 -315 6 -91 12 -204 71 -266 141 -51 58 -123 169 -164 255 -19 39 -38
72 -42 72 -4 0 -21 -30 -38 -66z"/>
<path d="M4188 1604 c-2 -1 -20 -5 -41 -8 -58 -9 -103 -31 -148 -73 -123 -113
-130 -307 -15 -425 62 -64 125 -91 211 -90 83 1 88 2 141 29 55 29 107 83 135
140 33 67 33 189 1 251 -51 96 -131 155 -234 171 -26 5 -49 7 -50 5z m137
-149 c47 -39 67 -77 71 -138 6 -79 -37 -156 -107 -192 -44 -23 -134 -24 -174
-2 -74 41 -107 90 -110 168 -4 75 24 132 82 173 76 53 166 50 238 -9z"/>
<path d="M4809 1600 c-63 -11 -145 -58 -183 -105 -159 -193 -30 -481 218 -490
170 -5 307 126 307 295 0 30 -2 65 -4 76 -9 37 -46 102 -75 131 -33 34 -92 77
-92 67 0 -3 -6 -2 -13 4 -19 16 -116 29 -158 22z m155 -132 c43 -28 73 -72 84
-126 27 -119 -70 -238 -193 -236 -142 2 -234 136 -186 269 19 51 75 102 126
116 22 5 45 11 50 13 20 5 86 -15 119 -36z"/>
<path d="M3477 1584 c-151 -38 -244 -170 -230 -325 19 -200 247 -325 427 -234
219 111 227 410 14 529 -60 33 -148 46 -211 30z m144 -108 c168 -72 158 -321
-15 -371 -96 -28 -180 4 -233 88 -60 96 -15 237 91 283 41 18 115 17 157 0z"/>
</g>
</svg>
